<!DOCTYPE svg PUBLIC "-//W3C//DTD SVG 1.1//EN" "http://www.w3.org/Graphics/SVG/1.1/DTD/svg11.dtd">
<!-- Uploaded to: SVG Repo, www.svgrepo.com, Transformed by: SVG Repo Mixer Tools -->
<svg version="1.1" id="Layer_1" xmlns="http://www.w3.org/2000/svg" xmlns:xlink="http://www.w3.org/1999/xlink" viewBox="0 0 512 512" xml:space="preserve" width="800px" height="800px" fill="#000000">
<g id="SVGRepo_bgCarrier" stroke-width="0"/>
<g id="SVGRepo_tracerCarrier" stroke-linecap="round" stroke-linejoin="round"/>
<g id="SVGRepo_iconCarrier"> <polygon style="fill:#ccffcc;" points="411.881,131.089 411.881,274.448 369.702,248.73 327.522,274.448 327.522,131.089 "/> <g> <path style="fill:#6ede72;" d="M411.881,288.535c-2.544,0-5.084-0.687-7.334-2.06l-34.846-21.246l-34.846,21.246 c-4.349,2.651-9.79,2.747-14.231,0.256c-4.44-2.495-7.19-7.19-7.19-12.284V131.089c0-7.779,6.307-14.087,14.087-14.087h84.358 c7.78,0,14.087,6.308,14.087,14.087v143.359c0,5.092-2.75,9.789-7.19,12.284C416.634,287.935,414.256,288.535,411.881,288.535z M369.702,234.644c2.541,0,5.081,0.686,7.334,2.06l20.759,12.656V145.176h-56.185v104.183l20.759-12.656 C364.619,235.33,367.16,234.644,369.702,234.644z"/> <path style="fill:#6ede72;" d="M142.28,261.07H14.087C6.307,261.07,0,254.762,0,246.983s6.307-14.087,14.087-14.087H142.28 c7.78,0,14.087,6.308,14.087,14.087S150.06,261.07,142.28,261.07z"/> <path style="fill:#6ede72;" d="M142.28,325.166H56.352c-7.78,0-14.087-6.308-14.087-14.087s6.307-14.087,14.087-14.087h85.929 c7.78,0,14.087,6.308,14.087,14.087S150.06,325.166,142.28,325.166z"/> <path style="fill:#6ede72;" d="M142.28,389.262H98.617c-7.78,0-14.087-6.308-14.087-14.087s6.307-14.087,14.087-14.087h43.664 c7.78,0,14.087,6.308,14.087,14.087S150.06,389.262,142.28,389.262z"/> <path style="fill:#6ede72;" d="M421.811,446.305H187.915c-32.394,0-58.75-26.355-58.75-58.75V247.294 c0-7.779,6.307-14.087,14.087-14.087s14.087,6.308,14.087,14.087v140.261c0,16.859,13.716,30.576,30.576,30.576H421.81 c16.861,0,30.577-13.716,30.577-30.576V118.942c0-7.779,6.307-14.087,14.087-14.087c7.78,0,14.087,6.308,14.087,14.087v268.614 C480.561,419.95,454.205,446.305,421.811,446.305z"/> </g> <rect x="111.808" y="79.782" style="fill:#ccffcc;" width="386.096" height="90.664"/> <path style="fill:#6ede72;" d="M497.913,184.537h-386.1c-7.78,0-14.087-6.308-14.087-14.087V79.782 c0-7.779,6.307-14.087,14.087-14.087h386.1c7.78,0,14.087,6.308,14.087,14.087v90.667C512,178.229,505.693,184.537,497.913,184.537z M125.9,156.363h357.926V93.869H125.9V156.363z"/> </g>
</svg>